<svg width="340" height="373" viewBox="0 0 340 373" fill="none" xmlns="http://www.w3.org/2000/svg">
<path d="M190 -25L204.377 16.2969C210.079 32.673 223.568 45.1297 240.345 49.5118L252.403 52.6611C269.865 57.2222 283.713 70.5117 288.99 87.7713L298.751 119.702C305.435 141.566 325.616 156.5 348.479 156.5H377" stroke="white" stroke-width="2"/>
<path d="M206 -25L220.377 16.2969C226.079 32.673 239.568 45.1297 256.345 49.5118L268.403 52.6611C285.865 57.2222 299.713 70.5117 304.99 87.7713L314.751 119.702C321.435 141.566 341.616 156.5 364.479 156.5H393" stroke="white" stroke-width="2"/>
<path d="M224 -25L238.377 16.2969C244.079 32.673 257.568 45.1297 274.345 49.5118L286.403 52.6611C303.865 57.2222 317.713 70.5117 322.99 87.7713L332.751 119.702C339.435 141.566 359.616 156.5 382.479 156.5H411" stroke="white" stroke-width="2"/>
<g clip-path="url(#clip0_0_1)">
<path d="M49.8674 372.248H156.469L156.469 244.462H49.8674L49.8674 372.248Z" fill="#B75230"/>
<path d="M49.9653 244.32H24.8163V372.106H49.9653V244.32Z" fill="#8F3A1E"/>
<path d="M57.4725 372.106L78.6802 319.643H104.585L120.908 334.632L125.975 372.106H57.4725Z" fill="#8F3A1E"/>
<path d="M101.014 244.32L100.263 269.428L97.8235 264.556L96.322 269.428L95.3836 265.868L92.9438 269.428L90.6917 267.554L89.5656 271.864L88.2518 244.32H101.014Z" fill="#DC8061"/>
<path d="M89.3778 372.106L87.501 339.316L84.8735 343.064L84.3105 342.127L82.0584 345.125L79.9939 341.003L79.4309 341.939L77.3664 338.379V372.106H89.3778Z" fill="#DC8061"/>
<path d="M38.3292 368.733C38.5169 368.733 38.7045 368.546 38.7045 368.358L36.077 248.255C36.077 248.068 35.8894 247.88 35.7017 247.88C35.514 247.88 35.3263 248.068 35.3263 248.255L37.9538 368.358C37.9538 368.546 38.1415 368.733 38.3292 368.733Z" fill="#B75230"/>
<path d="M125.436 372.135H185.494V309.179H125.436V372.135Z" fill="#FA402F"/>
<path d="M125.412 309.15H95.3835V372.106H125.412V309.15Z" fill="#FF6661"/>
<path d="M169.141 309.15L168.015 321.516L167.264 318.144L166.514 320.205L165.575 319.08L162.76 322.453L161.446 309.15H169.141Z" fill="#FAEBDA"/>
<path d="M169.141 372.106C169.329 372.106 169.141 353.369 169.141 353.369L166.326 358.24L165.388 356.742L163.699 359.365L161.447 355.617L160.883 372.106H169.141Z" fill="#FAEBDA"/>
<path d="M111.336 370.607C111.524 370.607 111.712 370.419 111.712 370.232L110.961 311.024C110.961 310.836 110.773 310.649 110.586 310.649C110.398 310.649 110.21 310.836 110.21 311.024L110.961 370.232C110.961 370.419 111.149 370.607 111.336 370.607Z" fill="#F22C09"/>
<path d="M155.441 372.106L149.247 346.624L142.679 372.106H155.441Z" fill="#F22C09"/>
</g>
<path d="M251.076 292.669H160.925V372.106H251.076V292.669Z" fill="#B75230"/>
<path d="M213.851 292.895L213.1 318.002L210.66 313.131L209.159 318.002L208.22 314.442L205.78 318.002L203.528 316.128L202.402 320.438L201.088 292.895H213.851Z" fill="#DC8061"/>
<path d="M197.481 372.363L195.604 339.573L192.977 343.32L192.414 342.384L190.161 345.382L188.097 341.259L187.534 342.196L185.469 338.636V372.363H197.481Z" fill="#DC8061"/>
<path d="M251.155 372.209H280.379V292.772H251.155V372.209Z" fill="#8F3A1E"/>
<path d="M242.739 292.698H263.416V265.032H242.739V292.698Z" fill="#FA402F"/>
<path d="M242.805 265.004H213.858V292.669H242.805V265.004Z" fill="#FF6661"/>
<path d="M219.006 287.663H236.65V284.924H219.006V287.663Z" fill="#F22C09"/>
<path d="M256.59 269.934C256.59 271.03 257.693 272.126 258.795 272.126C259.898 272.126 261.001 271.03 261.001 269.934C261.001 268.839 260.174 267.743 258.795 267.743C257.417 267.743 256.59 268.839 256.59 269.934Z" fill="#F22C09"/>
<path d="M0 372H304" stroke="black" stroke-width="1.5"/>
<path d="M71 229.431C81.5629 198.586 142.149 191.397 206.323 213.373C270.497 235.35 313.958 278.17 303.395 309.015" stroke="white" stroke-width="2" stroke-linecap="round"/>
<circle cx="136.287" cy="145.499" r="8" transform="rotate(156.88 136.287 145.499)" fill="white"/>
<circle cx="278.081" cy="253.496" r="8" transform="rotate(156.88 278.081 253.496)" fill="white"/>
<defs>
<clipPath id="clip0_0_1">
<rect width="160.653" height="195.238" fill="white" transform="translate(24.8163 176.868)"/>
</clipPath>
</defs>
</svg>
